<svg version="1.2" xmlns="http://www.w3.org/2000/svg" viewBox="0 0 166 53" width="166" height="53">
	<defs>
		<linearGradient id="g1" x2="1" gradientUnits="userSpaceOnUse" gradientTransform="matrix(-131.716,18.185,-22.82,-165.288,159.432,19.17)">
			<stop offset="0" stop-color="#344997"/>
			<stop offset="1" stop-color="#1d2837"/>
		</linearGradient>
		<linearGradient id="g2" x2="1" gradientUnits="userSpaceOnUse" gradientTransform="matrix(-131.716,18.185,-41.719,-302.184,146.909,16.03)">
			<stop offset="0" stop-color="#344997"/>
			<stop offset="1" stop-color="#1d2837"/>
		</linearGradient>
		<linearGradient id="g3" x2="1" gradientUnits="userSpaceOnUse" gradientTransform="matrix(-131.716,18.185,-19.053,-138.005,147.654,21.428)">
			<stop offset="0" stop-color="#344997"/>
			<stop offset="1" stop-color="#1d2837"/>
		</linearGradient>
		<linearGradient id="g4" x2="1" gradientUnits="userSpaceOnUse" gradientTransform="matrix(-131.716,18.185,-15.512,-112.357,147.153,17.802)">
			<stop offset="0" stop-color="#344997"/>
			<stop offset="1" stop-color="#1d2837"/>
		</linearGradient>
		<linearGradient id="g5" x2="1" gradientUnits="userSpaceOnUse" gradientTransform="matrix(-131.716,18.185,-18.185,-131.716,145.581,6.41)">
			<stop offset="0" stop-color="#344997"/>
			<stop offset="1" stop-color="#1d2837"/>
		</linearGradient>
		<linearGradient id="g6" x2="1" gradientUnits="userSpaceOnUse" gradientTransform="matrix(-131.716,18.185,-18.185,-131.716,145.266,4.129)">
			<stop offset="0" stop-color="#344997"/>
			<stop offset="1" stop-color="#1d2837"/>
		</linearGradient>
		<linearGradient id="g7" x2="1" gradientUnits="userSpaceOnUse" gradientTransform="matrix(-131.716,18.185,-18.175,-131.645,145.174,3.464)">
			<stop offset="0" stop-color="#344997"/>
			<stop offset="1" stop-color="#1d2837"/>
		</linearGradient>
		<linearGradient id="g8" x2="1" gradientUnits="userSpaceOnUse" gradientTransform="matrix(-131.716,18.185,-20.304,-147.069,160.655,28.026)">
			<stop offset="0" stop-color="#344997"/>
			<stop offset="1" stop-color="#1d2837"/>
		</linearGradient>
		<linearGradient id="g9" x2="1" gradientUnits="userSpaceOnUse" gradientTransform="matrix(-131.716,18.185,-24.55,-177.819,161.429,33.636)">
			<stop offset="0" stop-color="#344997"/>
			<stop offset="1" stop-color="#1d2837"/>
		</linearGradient>
		<clipPath clipPathUnits="userSpaceOnUse" id="cp1">
			<path d="m530.86-434v566.86h-566.86v-566.86z"/>
		</clipPath>
		<clipPath clipPathUnits="userSpaceOnUse" id="cp2">
			<path d="m530.86-434v566.86h-566.86v-566.86z"/>
		</clipPath>
		<clipPath clipPathUnits="userSpaceOnUse" id="cp3">
			<path d="m530.86-434v566.86h-566.86v-566.86z"/>
		</clipPath>
		<clipPath clipPathUnits="userSpaceOnUse" id="cp4">
			<path d="m530.86-434v566.86h-566.86v-566.86z"/>
		</clipPath>
		<clipPath clipPathUnits="userSpaceOnUse" id="cp5">
			<path d="m530.86-434v566.86h-566.86v-566.86z"/>
		</clipPath>
		<clipPath clipPathUnits="userSpaceOnUse" id="cp6">
			<path d="m530.86-434v566.86h-566.86v-566.86z"/>
		</clipPath>
		<clipPath clipPathUnits="userSpaceOnUse" id="cp7">
			<path d="m530.86-434v566.86h-566.86v-566.86z"/>
		</clipPath>
		<clipPath clipPathUnits="userSpaceOnUse" id="cp8">
			<path d="m530.86-434v566.86h-566.86v-566.86z"/>
		</clipPath>
		<clipPath clipPathUnits="userSpaceOnUse" id="cp9">
			<path d="m530.86-434v566.86h-566.86v-566.86z"/>
		</clipPath>
	</defs>
	<style>
		.s0 { fill: url(#g1) } 
		.s1 { fill: url(#g2) } 
		.s2 { fill: url(#g3) } 
		.s3 { fill: url(#g4) } 
		.s4 { fill: url(#g5) } 
		.s5 { fill: url(#g6) } 
		.s6 { fill: url(#g7) } 
		.s7 { fill: url(#g8) } 
		.s8 { fill: url(#g9) } 
		.s9 { fill: #a18359 } 
		.s10 { fill: #4d5461 } 
	</style>
	<g id="g1">
		<path id="path2" class="s0" d="m117.58 12.19q-0.73 0.04-1.4 0.07-0.67 0.03-1.4 0.05-0.73 0.01-1.66 0.03-0.93 0.01-2.19 0.02-1.26 0.02-2.98 0.02-0.23 0-1.26-0.02-1.03-0.01-2.4-0.05-1.38-0.05-2.88-0.09-1.5-0.04-2.67-0.13 0.48 0.52 0.75 1.1 0.28 0.59 0.42 1.26 0.14 0.68 0.17 1.43 0.03 0.76 0.03 1.59v18.86q0 0.86-0.03 1.62-0.03 0.76-0.17 1.43-0.14 0.67-0.42 1.26-0.27 0.59-0.75 1.07 1.2-0.05 2.34-0.11 1.15-0.06 2.35-0.06 1.17 0 2.33 0.06 1.16 0.06 2.36 0.11-0.94-0.97-1.14-2.23-0.2-1.26-0.2-2.81v-9.67q0-0.03-0.03-0.18-0.03-0.16-0.03-0.22h2.75q1.06 0 2.2 0.02 1.15 0.01 2.21 0.07 1.05 0.06 1.91 0.14 0.86 0.09 1.35 0.26 0-0.35 0.03-0.85 0.02-0.5 0.08-1.04 0.06-0.55 0.13-1.06 0.07-0.52 0.16-0.89-1 0.69-2.38 1.08-1.37 0.38-2.84 0.57-1.48 0.18-2.95 0.23-1.48 0.04-2.65 0.04 0-0.06 0.03-0.37 0.03-0.32 0.03-0.83v-9.68q0-0.08-0.03-0.27-0.03-0.18-0.03-0.27 1.89 0.06 3.52 0.33 1.63 0.27 3.18 0.74 1.54 0.48 3.12 1.11 1.57 0.63 3.35 1.37-0.15-0.46-0.26-1.13-0.12-0.67-0.17-1.39-0.06-0.71-0.1-1.41-0.05-0.71-0.08-1.28-0.97 0.06-1.7 0.1z"/>
		<path id="path4" class="s1" d="m70.18 12.22q-1.04 0.03-2.02 0.06-0.97-0.03-2.01-0.06-1.51-0.04-2.68-0.13 0.49 0.52 0.76 1.1 0.27 0.59 0.41 1.26 0.14 0.68 0.18 1.43 0.02 0.76 0.02 1.59v18.86q0 0.86-0.02 1.62-0.03 0.72-0.16 1.35-0.04 0.17-0.05 0.18 0 0.03-0.01 0.05-0.14 0.59-0.37 1.11-0.05 0.1-0.1 0.19-0.26 0.46-0.66 0.88 0.89-0.04 1.75-0.08 0.31-0.02 0.61-0.03 1.15-0.06 2.31-0.06 0.01 0 0.02 0 0.02 0 0.03 0 1.16 0 2.3 0.06 0.31 0.01 0.61 0.03 0.86 0.04 1.76 0.08-0.4-0.41-0.66-0.88-0.06-0.09-0.1-0.19-0.24-0.52-0.38-1.11 0-0.02-0.01-0.05 0-0.01-0.04-0.18-0.13-0.63-0.16-1.35-0.03-0.76-0.03-1.62v-18.86q0-0.83 0.03-1.59 0.03-0.75 0.17-1.43 0.15-0.67 0.42-1.26 0.27-0.58 0.76-1.1-1.18 0.09-2.68 0.13z"/>
		<path id="path6" class="s2" d="m53.77 22.49q-0.6 0.08-1.2 0.21-0.6 0.12-1.19 0.32-0.58 0.2-1.04 0.43-1.55 0.84-3.08 1.59-1.53 0.76-3.1 1.27v11.14q0 1.25 0.4 1.99 0.4 0.72 1.06 1.14 0.65 0.42 1.47 0.6 0.81 0.19 1.64 0.34 0.84 0.16 1.58 0.35 0.74 0.19 1.26 0.65 0.66-0.75 1.46-1.3 0.8-0.54 1.52-1.2v3.3c-1.02 0.72-2.02 1.52-2.86 2.35 0 0-2.22-2.08-7.31-1.94q-1.39 0.04-2.58-0.09v1.96c4.02-0.53 8.86-0.77 9.79 0.99l2.96-1.06 5.54-1.99v-18.57q0.01-0.25 0.21-0.53 0.2-0.27 0.44-0.5 0.24-0.23 0.46-0.4 0.22-0.17 0.24-0.2-1.63-0.29-3.25-0.6-1.62-0.32-3.3-0.32-0.51 0-1.12 0.07zm-3.22 18.36q-0.36-0.37-0.53-0.86-0.17-0.48-0.23-1.1-0.05-0.61-0.05-1.33v-12.05q0-0.65 0.18-1.07 0.19-0.41 1.05-0.41 0.8 0 1.84 0.14 1.05 0.14 2.16 0.33 1.12 0.18 2.22 0.36 1.11 0.17 2.02 0.19v0.09l-5.35 1q0.22 0.06 0.37 0.32 0.14 0.26 0.21 0.6 0.08 0.34 0.09 0.7 0.02 0.36 0.02 0.56-0.03 1.31-0.03 2.66-0.03 1.14-0.03 2.48v4.47q0 0.78 0.06 0.83-0.32 0.32-0.83 0.76-0.52 0.45-1.01 0.87-0.57 0.52-1.2 1.04-0.6-0.2-0.96-0.58z"/>
		<path id="path8" class="s3" d="m14.94 24.38l-1.42 0.59q0.81 0.2 1.19 0.57 0.39 0.37 0.39 1.12v14.83q0 1.12 0.44 1.93 0.45 0.82 1.19 1.35 0.71 0.5 1.54 0.77c1.19 0.39 2.47 0.23 3.69 0.12 1.3-0.1 2.58-0.26 3.87-0.36q0.02 0 0.04 0c1.71-0.13 3.47-0.17 5.17 0.15 0.7 0.14 1.57 0.35 2.04 0.95q0.07 0.09 0.12 0.19l2.98-1.07 0.07-0.03 5.55-1.85v-18.67q0-0.25 0.2-0.53 0.2-0.27 0.45-0.5 0.24-0.23 0.46-0.4 0.21-0.17 0.24-0.2-1.63-0.29-3.25-0.6-1.61-0.32-3.3-0.32-0.52 0-1.12 0.07-0.6 0.08-1.2 0.21-0.6 0.12-1.19 0.32-0.59 0.2-1.05 0.43-0.31 0.17-0.63 0.34-1.23 0.65-2.44 1.25-1.53 0.76-3.11 1.27v11.14q0 1.25 0.4 1.99 0.4 0.72 1.06 1.14 0.66 0.42 1.48 0.6 0.81 0.19 1.64 0.34 0.52 0.1 1 0.21 0.29 0.07 0.58 0.14 0.74 0.19 1.25 0.65 0.66-0.75 1.47-1.3 0.8-0.54 1.51-1.2v3.28c-1.02 0.73-2.1 1.53-2.95 2.37 0 0-0.59-0.55-1.86-1.07-1.19-0.49-2.98-0.94-5.45-0.87q-1.18 0.03-2.37-0.06c-0.5-0.04-1.01-0.03-1.5-0.12-0.41-0.08-1.05-0.31-1.21-0.75q-0.12-0.36-0.17-0.79-0.06-0.52-0.06-1.09v-16.98q0-0.52-0.13-1.02-0.12-0.5-0.62-0.61zm17.32 16.48q-0.36-0.37-0.53-0.86-0.18-0.48-0.23-1.1-0.06-0.61-0.06-1.33v-12.05q0-0.66 0.19-1.08 0.18-0.41 1.04-0.41 0.8 0 1.85 0.14 1.04 0.15 2.16 0.33 1.11 0.19 2.22 0.36 1.1 0.17 2.01 0.2v0.09l-5.35 1q0.23 0.06 0.37 0.31 0.15 0.26 0.22 0.6 0.07 0.35 0.08 0.7 0.02 0.36 0.02 0.56-0.03 1.32-0.03 2.67-0.03 1.14-0.03 2.47v4.48q0 0.77 0.06 0.83-0.32 0.32-0.83 0.75-0.52 0.45-1 0.88-0.58 0.52-1.21 1.03-0.6-0.2-0.95-0.57z"/>
		<path id="path10" class="s4" d="m51.3 19.09c0 0 1.58 0.61 2.46 2.45 0.85-2 2.45-2.45 2.45-2.45l-2.45-2.45z"/>
		<path id="path12" class="s5" d="m34.46 19.09c0 0 1.58 0.61 2.45 2.45 0.86-2 2.46-2.45 2.46-2.45l-2.46-2.45z"/>
		<path id="path14" class="s6" d="m29.55 19.09l2.46 2.45 2.45-2.45c0 0-1.58-0.61-2.45-2.45-0.86 2-2.46 2.45-2.46 2.45z"/>
		<path id="path16" class="s7" d="m127.37 22.9q-1.25 0.47-2.56 1.11-1.32 0.65-2.61 1.3-1.28 0.66-2.31 1.01v11.16q-0.01 0.97 0.4 1.6 0.4 0.63 1.05 1.04 0.66 0.42 1.51 0.68 0.84 0.25 1.7 0.48 0.86 0.23 1.68 0.52 0.81 0.28 1.44 0.71 0.94-0.4 1.77-0.93 0.83-0.52 1.69-1.01 0.46-0.26 1.25-0.73 0.78-0.47 1.56-1.05 0.77-0.57 1.33-1.2 0.56-0.63 0.56-1.26v-11.99q-0.95-0.09-1.74-0.4-0.78-0.32-1.51-0.66-0.73-0.34-1.45-0.6-0.71-0.26-1.54-0.26-0.98 0-2.22 0.48zm-0.63 18.13q-0.47-0.38-0.76-0.93-0.29-0.56-0.4-1.21-0.11-0.64-0.11-1.18v-11.48q0-1.15 0.67-1.89 0.67-0.74 1.67-0.74 1.43 0 1.95 0.65 0.51 0.66 0.51 1.98v13.59q0 0.15-0.25 0.4-0.26 0.26-0.62 0.52-0.36 0.26-0.77 0.46-0.42 0.2-0.7 0.2-0.72 0-1.19-0.37z"/>
		<path id="path18" class="s8" d="m147.8 22.49q-0.61 0.08-1.21 0.21-0.6 0.12-1.18 0.32-0.59 0.2-1.05 0.43-1.54 0.83-3.08 1.59-1.53 0.76-3.1 1.28v11.13q0 1.26 0.4 1.99 0.4 0.73 1.06 1.14 0.66 0.42 1.47 0.6 0.82 0.19 1.65 0.35 0.83 0.15 1.57 0.34 0.75 0.19 1.26 0.64 0.66-0.74 1.46-1.28 0.8-0.55 1.52-1.21v8.42q0.31-0.09 1.21-0.47 0.91-0.39 1.88-0.86 0.97-0.48 1.72-0.93 0.74-0.46 0.74-0.72v-20.49q0-0.26 0.2-0.53 0.2-0.27 0.44-0.5 0.25-0.23 0.46-0.4 0.22-0.17 0.25-0.2-1.64-0.29-3.25-0.6-1.62-0.32-3.31-0.32-0.51 0-1.11 0.07zm-3.22 18.36q-0.36-0.37-0.53-0.85-0.18-0.49-0.23-1.11-0.06-0.61-0.06-1.33v-12.05q0-0.65 0.19-1.07 0.18-0.41 1.04-0.41 0.8 0 1.85 0.14 1.04 0.14 2.16 0.33 1.11 0.19 2.22 0.35 1.1 0.18 2.01 0.21v0.08l-5.35 1q0.23 0.06 0.37 0.32 0.15 0.26 0.22 0.6 0.07 0.34 0.08 0.7 0.02 0.36 0.02 0.56-0.03 1.32-0.03 2.66-0.03 1.14-0.03 2.48v2.5 1.97q0 0.78 0.06 0.83-0.32 0.32-0.83 0.76-0.52 0.45-1 0.88-0.58 0.51-1.21 1.03-0.6-0.2-0.95-0.58z"/>
		<g id="Clip-Path: path19" clip-path="url(#cp1)">
			<path id="path19" class="s9" d="m64.64 7.63h-0.68v0.57h0.68z"/>
		</g>
		<g id="Clip-Path: path21" clip-path="url(#cp2)">
			<path id="path21" class="s9" d="m65.56 7.63h-0.68v0.57h0.68z"/>
		</g>
		<g id="Clip-Path: path23" clip-path="url(#cp3)">
			<path id="path23" class="s9" d="m70.48 7.35h-0.72v0.57h0.72z"/>
		</g>
		<g id="Clip-Path: path25" clip-path="url(#cp4)">
			<path id="path25" class="s9" d="m72.14 7.42v2.66h-0.51-0.49v-1.73h-1.08q-0.39 0-0.66 0.14-0.27 0.13-0.4 0.39-0.13 0.26-0.13 0.64 0 0.34 0.1 0.56h-0.48-1.48-0.49v-1.73h-0.71v1.73h-1.2q-0.22 0-0.39-0.02-0.17-0.03-0.28-0.1-0.12-0.07-0.18-0.19-0.06-0.12-0.06-0.3 0-0.11 0.01-0.23 0.02-0.13 0.04-0.24 0.03-0.11 0.04-0.18l-0.69-0.14q-0.01 0.05-0.03 0.14-0.02 0.08-0.04 0.2-0.02 0.11-0.03 0.23-0.01 0.12-0.01 0.23 0 0.4 0.18 0.67 0.18 0.27 0.53 0.4 0.36 0.14 0.87 0.14h1.95 0.49 1.48 2.65 0.49 0.51 0.72v-3.27zm-2.38 2.62q-0.1-0.03-0.15-0.15-0.04-0.12-0.04-0.37 0-0.22 0.04-0.34 0.05-0.12 0.15-0.17 0.11-0.05 0.29-0.05h0.37v1.12h-0.37q-0.18 0-0.29-0.04z"/>
		</g>
		<g id="Clip-Path: path27" clip-path="url(#cp5)">
			<path id="path27" class="s9" d="m98.74 10.67v-3.3h0.76v2.66h1.26v0.64z"/>
		</g>
		<g id="Clip-Path: path29" clip-path="url(#cp6)">
			<path id="path29" class="s9" d="m101.57 7.37h0.77v3.3h-0.77z"/>
		</g>
		<g id="Clip-Path: path31" clip-path="url(#cp7)">
			<path id="path31" class="s9" d="m103.38 10.67v-3.3h2.19v0.63h-1.42v0.9h1.14v0.64h-1.14v1.13z"/>
		</g>
		<g id="Clip-Path: path33" clip-path="url(#cp8)">
			<path id="path33" class="s9" d="m107.03 10.67v-2.66h-0.84v-0.64h2.43v0.64h-0.82v2.66z"/>
		</g>
		<g id="Clip-Path: path35" clip-path="url(#cp9)">
			<path id="path35" class="s10" d="m95.49 11.37q-1.05-1.57-2.66-2.45-1.6-0.89-3.49-1.23-1.9-0.34-3.58-0.34-1.93 0-3.84 0.41-1.9 0.42-3.44 1.38-1.54 0.96-2.49 2.51-0.95 1.53-0.95 3.79v18.55q0 2.45 1.06 4.02 1.06 1.57 2.66 2.45 1.6 0.89 3.5 1.23 1.89 0.34 3.58 0.34 1.92 0 3.83-0.42 1.91-0.42 3.45-1.38 1.53-0.96 2.48-2.5 0.95-1.54 0.95-3.79v-18.55q0-2.46-1.06-4.02zm-9.53 22.98l-5.1-9.22h9.87zm-5.1-11.43l4.77-9.23 5.1 9.23z"/>
		</g>
	</g>
</svg>